<svg width="1200" height="1200" viewBox="0 0 1200 1200" fill="none" xmlns="http://www.w3.org/2000/svg">
  <circle cx="600" cy="600" r="500" stroke="#8A2BE2" stroke-width="2" stroke-opacity="0.2"/>
  <circle cx="600" cy="600" r="400" stroke="#8A2BE2" stroke-width="2" stroke-opacity="0.15"/>
  <circle cx="600" cy="600" r="300" stroke="#8A2BE2" stroke-width="2" stroke-opacity="0.1"/>
  <circle cx="600" cy="600" r="200" stroke="#00FFFF" stroke-width="2" stroke-opacity="0.2"/>
  
  <!-- Longitude Lines -->
  <path d="M600 100C600 100 900 300 900 600C900 900 600 1100 600 1100" stroke="#8A2BE2" stroke-width="1" stroke-opacity="0.1"/>
  <path d="M600 100C600 100 300 300 300 600C300 900 600 1100 600 1100" stroke="#8A2BE2" stroke-width="1" stroke-opacity="0.1"/>
  <path d="M100 600H1100" stroke="#8A2BE2" stroke-width="1" stroke-opacity="0.1"/>
  
  <!-- Latitude Lines -->
  <ellipse cx="600" cy="600" rx="500" ry="200" stroke="#8A2BE2" stroke-width="1" stroke-opacity="0.1"/>
  <ellipse cx="600" cy="600" rx="500" ry="350" stroke="#8A2BE2" stroke-width="1" stroke-opacity="0.1"/>
  
  <!-- Random Nodes and Connections -->
  <circle cx="750" cy="480" r="5" fill="#00FFFF" fill-opacity="0.6"/>
  <circle cx="480" cy="680" r="5" fill="#00FFFF" fill-opacity="0.6"/>
  <circle cx="900" cy="600" r="5" fill="#00FFFF" fill-opacity="0.6"/>
  <circle cx="350" cy="550" r="5" fill="#00FFFF" fill-opacity="0.6"/>
  <circle cx="670" cy="270" r="5" fill="#00FFFF" fill-opacity="0.6"/>
  <circle cx="530" cy="850" r="5" fill="#00FFFF" fill-opacity="0.6"/>
  
  <path d="M750 480L900 600L670 270L750 480L530 850L480 680L350 550L750 480" stroke="#00FFFF" stroke-width="1" stroke-opacity="0.2"/>
</svg> 